<?xml version="1.0" encoding="UTF-8"?>
<svg xmlns="http://www.w3.org/2000/svg" xmlns:xlink="http://www.w3.org/1999/xlink" viewBox="0 0 26 26" width="26px" height="26px">
<g id="surface17464092">
<path style=" stroke:none;fill-rule:nonzero;fill:rgb(27.450982%,63.921571%,36.862746%);fill-opacity:1;" d="M 13 26 C 5.820312 26 0 20.179688 0 13 C 0 5.820312 5.820312 0 13 0 C 20.179688 0 26 5.820312 26 13 C 26 20.179688 20.179688 26 13 26 Z M 13 26 "/>
<path style=" stroke:none;fill-rule:nonzero;fill:rgb(100%,100%,100%);fill-opacity:1;" d="M 20.59375 6.4375 L 19.171875 5.472656 C 18.777344 5.207031 18.242188 5.308594 17.976562 5.699219 L 11.007812 15.972656 L 7.808594 12.769531 C 7.472656 12.4375 6.929688 12.4375 6.59375 12.769531 L 5.375 13.988281 C 5.042969 14.320312 5.042969 14.867188 5.375 15.203125 L 10.300781 20.128906 C 10.574219 20.402344 11.007812 20.613281 11.398438 20.613281 C 11.789062 20.613281 12.183594 20.371094 12.4375 20 L 20.824219 7.628906 C 21.089844 7.238281 20.988281 6.703125 20.59375 6.4375 Z M 20.59375 6.4375 "/>
</g>
</svg>
