<?xml version="1.0" encoding="UTF-8"?>
<svg xmlns="http://www.w3.org/2000/svg" xmlns:xlink="http://www.w3.org/1999/xlink" viewBox="0 0 24 24" width="24px" height="24px">
<g id="surface23701104">
<path style="fill-rule:nonzero;fill:none;fill-opacity:0;stroke-width:20;stroke-linecap:butt;stroke-linejoin:round;stroke:#46a35e;stroke-opacity:1;stroke-miterlimit:10;" d="M 119.695132 21.631111 C 119.695132 21.631111 119.734515 21.670494 119.734515 21.670494 L 214.687268 104.49324 C 215.868762 105.399052 216.577658 106.777462 216.577658 108.274021 C 216.577658 110.873308 214.490352 112.999998 211.891065 112.999998 L 188.339946 112.999998 L 188.339946 188.339946 C 188.339946 193.538521 184.12595 197.752517 178.927376 197.752517 L 141.23771 197.752517 C 136.039135 197.752517 131.825139 193.538521 131.825139 188.339946 L 131.825139 131.825139 L 94.174857 131.825139 L 94.174857 188.339946 C 94.174857 193.538521 89.960861 197.752517 84.762286 197.752517 L 47.07262 197.752517 C 41.874046 197.752517 37.660049 193.538521 37.660049 188.339946 L 37.660049 112.999998 L 14.108931 112.999998 C 11.509644 112.999998 9.422337 110.873308 9.422337 108.274021 C 9.422337 106.777462 10.131234 105.399052 11.312728 104.49324 L 106.304864 21.631111 C 108.077105 19.85887 110.479477 18.834908 112.999998 18.834908 C 115.520519 18.834908 117.922891 19.85887 119.695132 21.631111 Z M 119.695132 21.631111 " transform="matrix(0.0991858,0,0,0.0991858,0.792,0.792)"/>
<path style=" stroke:none;fill-rule:nonzero;fill:#46a35e;fill-opacity:1;" d="M 12 2.660156 C 11.75 2.660156 11.511719 2.761719 11.335938 2.9375 L 1.914062 11.15625 C 1.796875 11.246094 1.726562 11.382812 1.726562 11.53125 C 1.726562 11.789062 1.933594 12 2.191406 12 L 4.527344 12 L 4.527344 19.472656 C 4.527344 19.988281 4.945312 20.40625 5.460938 20.40625 L 9.199219 20.40625 C 9.714844 20.40625 10.132812 19.988281 10.132812 19.472656 L 10.132812 13.867188 L 13.867188 13.867188 L 13.867188 19.472656 C 13.867188 19.988281 14.285156 20.40625 14.800781 20.40625 L 18.539062 20.40625 C 19.054688 20.40625 19.472656 19.988281 19.472656 19.472656 L 19.472656 12 L 21.808594 12 C 22.066406 12 22.273438 11.789062 22.273438 11.53125 C 22.273438 11.382812 22.203125 11.246094 22.085938 11.15625 L 12.667969 2.941406 C 12.667969 2.941406 12.664062 2.9375 12.664062 2.9375 C 12.488281 2.761719 12.25 2.660156 12 2.660156 Z M 12 2.660156 "/>
</g>
</svg>
